# xmcd
#
# Track frame offsets: 
#        150
#        11626
#        24296
#        36023
#        40660
#        51120
#        64967
#        78134
#        91925
#        104727
#        117080
#        130915
#        148431
#        163145
#        177626
#        196393
#        205611
#        226184
#        245251
#        262468
#        266535
#        277871
#        278366
#        286106
#        286821
#        299058
#
# Disc length: 4179 seconds
#
# Revision: 2
# Processed by: cddbd v1.5.2PL0 Copyright (c) Steve Scherf et al.
# Submitted via: ExactAudioCopy v0.99pb5
#
DISCID=8010511a
DTITLE=Cream - Cream Remasters - Outtakes and Alternates  [CD1]
DYEAR=2008
DGENRE=Blues
TTITLE0=Beauty Queen
TTITLE1=Coffee Song
TTITLE2=You Make Me Feel
TTITLE3=Wrapping Paper
TTITLE4=Wrapping Paper
TTITLE5=Cats Squirrel
TTITLE6=Cats Squirrel
TTITLE7=I Feel Free
TTITLE8=I Feel Free
TTITLE9=I Feel Free
TTITLE10=Sweet Wine
TTITLE11=Sweet Wine
TTITLE12=Sweet Wine
TTITLE13=Sweet Wine
TTITLE14=Sleepy Time Time
TTITLE15=Four Until Late
TTITLE16=Rollin' and Tumblin'
TTITLE17=Toad
TTITLE18=I'm So Glad
TTITLE19=Intro
TTITLE20=Wrapping Paper
TTITLE21=Intro
TTITLE22=Traintime
TTITLE23=Intro
TTITLE24=Stepping Out
TTITLE25=I'm So Glad
EXTD=
EXTT0=
EXTT1=
EXTT2=
EXTT3=
EXTT4=
EXTT5=
EXTT6=
EXTT7=
EXTT8=
EXTT9=
EXTT10=
EXTT11=
EXTT12=
EXTT13=
EXTT14=
EXTT15=
EXTT16=
EXTT17=
EXTT18=
EXTT19=
EXTT20=
EXTT21=
EXTT22=
EXTT23=
EXTT24=
EXTT25=
PLAYORDER=
